<svg id="Layer_1" data-name="Layer 1" xmlns="http://www.w3.org/2000/svg" viewBox="0 0 209.11 27.72"><defs><style>.cls-1{fill:#175885;}.cls-2{fill:#568e70;}</style></defs><path class="cls-1" d="M39,.8H44L56.07,26.92H49.79l-2.4-5.52H35.32L33,26.92h-6ZM37.28,16.88h8.15l-4-9.24h-.24Z"/><path class="cls-1" d="M84.71.8V26.92h-5L66.48,10.76h0V26.92H60.68V.8H65.6L78.91,17h0V.8Z"/><path class="cls-1" d="M104.47,0c8.28,0,14.92,6.2,14.92,13.8,0,7.76-6.64,13.92-14.92,13.92S89.72,21.56,89.72,13.8C89.72,6.2,96.2,0,104.47,0Zm0,22.8a8.92,8.92,0,1,0,0-17.84,8.77,8.77,0,0,0-8.75,8.84A8.86,8.86,0,0,0,104.47,22.8Z"/><path class="cls-1" d="M130.08.8V22h15.35v4.92H124.36V.8Z"/><path class="cls-1" d="M161.79.8h4.92l12.12,26.12h-6.28l-2.4-5.52H158.07l-2.35,5.52h-6ZM160,16.88h8.16l-4-9.24H164Z"/><path class="cls-1" d="M183.44,26.92V.8h15.63c3.24,0,5.56,1,7,2.52a5.61,5.61,0,0,1,1.64,3.92,6,6,0,0,1-3.28,5.24A6.54,6.54,0,0,1,209.11,19a7.65,7.65,0,0,1-2.44,5.6c-1.6,1.52-3.56,2.36-7.12,2.36Zm5.75-21.36v5.72h9.2a3.38,3.38,0,0,0,2.52-.84,3,3,0,0,0,.88-2.12,2.63,2.63,0,0,0-.8-1.88,3.24,3.24,0,0,0-2.6-.88Zm0,10v6.6h10.16a4.12,4.12,0,0,0,2.88-1,3.42,3.42,0,0,0,.92-2.28,3.23,3.23,0,0,0-.92-2.2,3.85,3.85,0,0,0-2.88-1.12Z"/><path class="cls-2" d="M26,13.82a13.34,13.34,0,0,1-3.76,9.64c-2.24,2.12-5.08,3.44-10,3.44H0V15.41H5.74v5.75h7.61a6.87,6.87,0,0,0,6.87-6.88V13.4a6.87,6.87,0,0,0-6.87-6.87H0V.79H12.28c4.8,0,7.92,1.36,10.24,3.72A13.18,13.18,0,0,1,26,13.82Z"/></svg>